<mxfile host="Electron" modified="2024-06-27T12:46:45.437Z" agent="Mozilla/5.0 (Windows NT 10.0; Win64; x64) AppleWebKit/537.36 (KHTML, like Gecko) draw.io/23.1.5 Chrome/120.0.6099.109 Electron/28.1.0 Safari/537.36" etag="9SKYH8VrIF0paEZ48hl8" version="23.1.5" type="device">
  <diagram name="Page-1" id="Z8BiXSvluWIJ6HaIwrIF">
    <mxGraphModel dx="1591" dy="963" grid="1" gridSize="10" guides="1" tooltips="1" connect="1" arrows="1" fold="1" page="1" pageScale="1" pageWidth="1654" pageHeight="1169" math="0" shadow="0">
      <root>
        <mxCell id="0" />
        <mxCell id="1" parent="0" />
        <mxCell id="grrOnaRMzCS4ievq40nL-47" value="" style="rounded=1;whiteSpace=wrap;html=1;fillColor=#f5f5f5;fontColor=#333333;strokeColor=#666666;" vertex="1" parent="1">
          <mxGeometry x="800" y="95" width="760" height="1005" as="geometry" />
        </mxCell>
        <mxCell id="grrOnaRMzCS4ievq40nL-45" value="" style="rounded=1;whiteSpace=wrap;html=1;fillColor=#e1d5e7;strokeColor=#9673a6;" vertex="1" parent="1">
          <mxGeometry x="300" y="100" width="490" height="1010" as="geometry" />
        </mxCell>
        <mxCell id="grrOnaRMzCS4ievq40nL-12" value="" style="edgeStyle=orthogonalEdgeStyle;rounded=0;orthogonalLoop=1;jettySize=auto;html=1;" edge="1" parent="1" source="grrOnaRMzCS4ievq40nL-2" target="grrOnaRMzCS4ievq40nL-5">
          <mxGeometry relative="1" as="geometry" />
        </mxCell>
        <mxCell id="grrOnaRMzCS4ievq40nL-2" value="press &quot;ARM&quot; push button at the base station" style="rounded=1;whiteSpace=wrap;html=1;" vertex="1" parent="1">
          <mxGeometry x="380" y="300" width="120" height="60" as="geometry" />
        </mxCell>
        <mxCell id="grrOnaRMzCS4ievq40nL-11" value="" style="edgeStyle=orthogonalEdgeStyle;rounded=0;orthogonalLoop=1;jettySize=auto;html=1;" edge="1" parent="1" source="grrOnaRMzCS4ievq40nL-3" target="grrOnaRMzCS4ievq40nL-2">
          <mxGeometry relative="1" as="geometry" />
        </mxCell>
        <mxCell id="grrOnaRMzCS4ievq40nL-3" value="start" style="ellipse;whiteSpace=wrap;html=1;aspect=fixed;" vertex="1" parent="1">
          <mxGeometry x="400" y="170" width="80" height="80" as="geometry" />
        </mxCell>
        <mxCell id="grrOnaRMzCS4ievq40nL-13" value="" style="edgeStyle=orthogonalEdgeStyle;rounded=0;orthogonalLoop=1;jettySize=auto;html=1;" edge="1" parent="1" source="grrOnaRMzCS4ievq40nL-5" target="grrOnaRMzCS4ievq40nL-7">
          <mxGeometry relative="1" as="geometry" />
        </mxCell>
        <mxCell id="grrOnaRMzCS4ievq40nL-5" value="check&amp;nbsp; if button &lt;br&gt;is long_pressed for &amp;gt; 2 seconds" style="rhombus;whiteSpace=wrap;html=1;" vertex="1" parent="1">
          <mxGeometry x="357.5" y="400" width="165" height="150" as="geometry" />
        </mxCell>
        <mxCell id="grrOnaRMzCS4ievq40nL-6" value="Y" style="text;html=1;align=center;verticalAlign=middle;whiteSpace=wrap;rounded=0;" vertex="1" parent="1">
          <mxGeometry x="440" y="550" width="60" height="30" as="geometry" />
        </mxCell>
        <mxCell id="grrOnaRMzCS4ievq40nL-14" value="" style="edgeStyle=orthogonalEdgeStyle;rounded=0;orthogonalLoop=1;jettySize=auto;html=1;" edge="1" parent="1" source="grrOnaRMzCS4ievq40nL-7" target="grrOnaRMzCS4ievq40nL-8">
          <mxGeometry relative="1" as="geometry" />
        </mxCell>
        <mxCell id="grrOnaRMzCS4ievq40nL-7" value="no_of_presses++" style="rounded=1;whiteSpace=wrap;html=1;" vertex="1" parent="1">
          <mxGeometry x="380" y="600" width="120" height="60" as="geometry" />
        </mxCell>
        <mxCell id="grrOnaRMzCS4ievq40nL-17" value="" style="edgeStyle=orthogonalEdgeStyle;rounded=0;orthogonalLoop=1;jettySize=auto;html=1;" edge="1" parent="1" source="grrOnaRMzCS4ievq40nL-8" target="grrOnaRMzCS4ievq40nL-9">
          <mxGeometry relative="1" as="geometry" />
        </mxCell>
        <mxCell id="grrOnaRMzCS4ievq40nL-8" value="if no_of_presses == 2" style="rhombus;whiteSpace=wrap;html=1;" vertex="1" parent="1">
          <mxGeometry x="357.5" y="710" width="165" height="150" as="geometry" />
        </mxCell>
        <mxCell id="grrOnaRMzCS4ievq40nL-16" style="edgeStyle=orthogonalEdgeStyle;rounded=0;orthogonalLoop=1;jettySize=auto;html=1;entryX=0.5;entryY=0;entryDx=0;entryDy=0;" edge="1" parent="1" source="grrOnaRMzCS4ievq40nL-9" target="grrOnaRMzCS4ievq40nL-10">
          <mxGeometry relative="1" as="geometry">
            <Array as="points">
              <mxPoint x="565" y="930" />
              <mxPoint x="565" y="210" />
              <mxPoint x="690" y="210" />
            </Array>
          </mxGeometry>
        </mxCell>
        <mxCell id="grrOnaRMzCS4ievq40nL-9" value="reset no_of_presses to 0" style="rounded=1;whiteSpace=wrap;html=1;" vertex="1" parent="1">
          <mxGeometry x="380" y="900" width="120" height="60" as="geometry" />
        </mxCell>
        <mxCell id="grrOnaRMzCS4ievq40nL-20" value="" style="edgeStyle=orthogonalEdgeStyle;rounded=0;orthogonalLoop=1;jettySize=auto;html=1;" edge="1" parent="1" source="grrOnaRMzCS4ievq40nL-10" target="grrOnaRMzCS4ievq40nL-19">
          <mxGeometry relative="1" as="geometry" />
        </mxCell>
        <mxCell id="grrOnaRMzCS4ievq40nL-10" value="Send &quot;ARM&quot; command to flight computer" style="rounded=1;whiteSpace=wrap;html=1;" vertex="1" parent="1">
          <mxGeometry x="630" y="300" width="120" height="60" as="geometry" />
        </mxCell>
        <mxCell id="grrOnaRMzCS4ievq40nL-18" value="Y" style="text;html=1;align=center;verticalAlign=middle;whiteSpace=wrap;rounded=0;" vertex="1" parent="1">
          <mxGeometry x="440" y="860" width="60" height="30" as="geometry" />
        </mxCell>
        <mxCell id="grrOnaRMzCS4ievq40nL-19" value="MQTT" style="ellipse;shape=cloud;whiteSpace=wrap;html=1;" vertex="1" parent="1">
          <mxGeometry x="630" y="390" width="120" height="80" as="geometry" />
        </mxCell>
        <mxCell id="grrOnaRMzCS4ievq40nL-23" value="" style="edgeStyle=orthogonalEdgeStyle;rounded=0;orthogonalLoop=1;jettySize=auto;html=1;" edge="1" parent="1" source="grrOnaRMzCS4ievq40nL-21" target="grrOnaRMzCS4ievq40nL-22">
          <mxGeometry relative="1" as="geometry">
            <Array as="points">
              <mxPoint x="880" y="430" />
              <mxPoint x="880" y="430" />
            </Array>
          </mxGeometry>
        </mxCell>
        <mxCell id="grrOnaRMzCS4ievq40nL-21" value="MQTT" style="ellipse;shape=cloud;whiteSpace=wrap;html=1;" vertex="1" parent="1">
          <mxGeometry x="790" y="390" width="120" height="80" as="geometry" />
        </mxCell>
        <mxCell id="grrOnaRMzCS4ievq40nL-26" value="" style="edgeStyle=orthogonalEdgeStyle;rounded=0;orthogonalLoop=1;jettySize=auto;html=1;" edge="1" parent="1" source="grrOnaRMzCS4ievq40nL-22" target="grrOnaRMzCS4ievq40nL-24">
          <mxGeometry relative="1" as="geometry" />
        </mxCell>
        <mxCell id="grrOnaRMzCS4ievq40nL-22" value="parse received MQTT&lt;br&gt;command" style="rounded=1;whiteSpace=wrap;html=1;" vertex="1" parent="1">
          <mxGeometry x="960" y="400" width="120" height="60" as="geometry" />
        </mxCell>
        <mxCell id="grrOnaRMzCS4ievq40nL-27" value="" style="edgeStyle=orthogonalEdgeStyle;rounded=0;orthogonalLoop=1;jettySize=auto;html=1;" edge="1" parent="1" source="grrOnaRMzCS4ievq40nL-24" target="grrOnaRMzCS4ievq40nL-25">
          <mxGeometry relative="1" as="geometry" />
        </mxCell>
        <mxCell id="grrOnaRMzCS4ievq40nL-50" style="edgeStyle=orthogonalEdgeStyle;rounded=0;orthogonalLoop=1;jettySize=auto;html=1;entryX=0;entryY=0.5;entryDx=0;entryDy=0;" edge="1" parent="1" source="grrOnaRMzCS4ievq40nL-24" target="grrOnaRMzCS4ievq40nL-49">
          <mxGeometry relative="1" as="geometry" />
        </mxCell>
        <mxCell id="grrOnaRMzCS4ievq40nL-24" value="is the command &quot;ARM&quot;" style="rhombus;whiteSpace=wrap;html=1;fillColor=#dae8fc;strokeColor=#6c8ebf;" vertex="1" parent="1">
          <mxGeometry x="937.5" y="510" width="165" height="150" as="geometry" />
        </mxCell>
        <mxCell id="grrOnaRMzCS4ievq40nL-30" value="" style="edgeStyle=orthogonalEdgeStyle;rounded=0;orthogonalLoop=1;jettySize=auto;html=1;" edge="1" parent="1" source="grrOnaRMzCS4ievq40nL-25" target="grrOnaRMzCS4ievq40nL-29">
          <mxGeometry relative="1" as="geometry" />
        </mxCell>
        <mxCell id="grrOnaRMzCS4ievq40nL-25" value="arm the avionics by writing a HIGH pulse to the ARMING_PIN of the flight computer" style="rounded=1;whiteSpace=wrap;html=1;" vertex="1" parent="1">
          <mxGeometry x="935" y="710" width="170" height="100" as="geometry" />
        </mxCell>
        <mxCell id="grrOnaRMzCS4ievq40nL-28" value="Y" style="text;html=1;align=center;verticalAlign=middle;whiteSpace=wrap;rounded=0;" vertex="1" parent="1">
          <mxGeometry x="1020" y="660" width="60" height="30" as="geometry" />
        </mxCell>
        <mxCell id="grrOnaRMzCS4ievq40nL-33" value="" style="edgeStyle=orthogonalEdgeStyle;rounded=0;orthogonalLoop=1;jettySize=auto;html=1;" edge="1" parent="1" source="grrOnaRMzCS4ievq40nL-29" target="grrOnaRMzCS4ievq40nL-32">
          <mxGeometry relative="1" as="geometry" />
        </mxCell>
        <mxCell id="grrOnaRMzCS4ievq40nL-29" value="read the ARMING_PIN to check arming status&amp;nbsp;" style="rounded=1;whiteSpace=wrap;html=1;" vertex="1" parent="1">
          <mxGeometry x="960" y="845" width="120" height="60" as="geometry" />
        </mxCell>
        <mxCell id="grrOnaRMzCS4ievq40nL-35" value="" style="edgeStyle=orthogonalEdgeStyle;rounded=0;orthogonalLoop=1;jettySize=auto;html=1;" edge="1" parent="1" source="grrOnaRMzCS4ievq40nL-32" target="grrOnaRMzCS4ievq40nL-34">
          <mxGeometry relative="1" as="geometry" />
        </mxCell>
        <mxCell id="grrOnaRMzCS4ievq40nL-42" value="" style="edgeStyle=orthogonalEdgeStyle;rounded=0;orthogonalLoop=1;jettySize=auto;html=1;" edge="1" parent="1" source="grrOnaRMzCS4ievq40nL-32" target="grrOnaRMzCS4ievq40nL-41">
          <mxGeometry relative="1" as="geometry" />
        </mxCell>
        <mxCell id="grrOnaRMzCS4ievq40nL-32" value="is arming_status == TRUE?" style="rhombus;whiteSpace=wrap;html=1;fillColor=#dae8fc;strokeColor=#6c8ebf;" vertex="1" parent="1">
          <mxGeometry x="1160" y="800" width="165" height="150" as="geometry" />
        </mxCell>
        <mxCell id="grrOnaRMzCS4ievq40nL-37" value="" style="edgeStyle=orthogonalEdgeStyle;rounded=0;orthogonalLoop=1;jettySize=auto;html=1;" edge="1" parent="1" source="grrOnaRMzCS4ievq40nL-34" target="grrOnaRMzCS4ievq40nL-36">
          <mxGeometry relative="1" as="geometry" />
        </mxCell>
        <mxCell id="grrOnaRMzCS4ievq40nL-34" value="arming successful. Publish ARMING_SUCCESS&amp;nbsp; messageto the ground station" style="rounded=1;whiteSpace=wrap;html=1;" vertex="1" parent="1">
          <mxGeometry x="1173.75" y="660" width="137.5" height="90" as="geometry" />
        </mxCell>
        <mxCell id="grrOnaRMzCS4ievq40nL-36" value="stop" style="ellipse;whiteSpace=wrap;html=1;aspect=fixed;fillColor=#ffe6cc;strokeColor=#d79b00;" vertex="1" parent="1">
          <mxGeometry x="1202.5" y="530" width="80" height="80" as="geometry" />
        </mxCell>
        <mxCell id="grrOnaRMzCS4ievq40nL-38" value="Y" style="text;html=1;align=center;verticalAlign=middle;whiteSpace=wrap;rounded=0;" vertex="1" parent="1">
          <mxGeometry x="1240" y="760" width="60" height="30" as="geometry" />
        </mxCell>
        <mxCell id="grrOnaRMzCS4ievq40nL-39" value="N" style="text;html=1;align=center;verticalAlign=middle;whiteSpace=wrap;rounded=0;" vertex="1" parent="1">
          <mxGeometry x="1230" y="960" width="60" height="30" as="geometry" />
        </mxCell>
        <mxCell id="grrOnaRMzCS4ievq40nL-43" style="edgeStyle=orthogonalEdgeStyle;rounded=0;orthogonalLoop=1;jettySize=auto;html=1;entryX=0;entryY=0.5;entryDx=0;entryDy=0;" edge="1" parent="1" source="grrOnaRMzCS4ievq40nL-41" target="grrOnaRMzCS4ievq40nL-28">
          <mxGeometry relative="1" as="geometry">
            <Array as="points">
              <mxPoint x="890" y="1050" />
              <mxPoint x="890" y="675" />
            </Array>
          </mxGeometry>
        </mxCell>
        <mxCell id="grrOnaRMzCS4ievq40nL-41" value="Not armed" style="rounded=1;whiteSpace=wrap;html=1;fillColor=#ffe6cc;strokeColor=#d79b00;" vertex="1" parent="1">
          <mxGeometry x="1182.5" y="1020" width="120" height="60" as="geometry" />
        </mxCell>
        <mxCell id="grrOnaRMzCS4ievq40nL-46" value="GROUND STATION" style="text;strokeColor=none;fillColor=none;html=1;fontSize=24;fontStyle=1;verticalAlign=middle;align=center;" vertex="1" parent="1">
          <mxGeometry x="470" y="110" width="100" height="40" as="geometry" />
        </mxCell>
        <mxCell id="grrOnaRMzCS4ievq40nL-48" value="FLIGHT COMPUTER" style="text;strokeColor=none;fillColor=none;html=1;fontSize=24;fontStyle=1;verticalAlign=middle;align=center;" vertex="1" parent="1">
          <mxGeometry x="1010" y="110" width="100" height="40" as="geometry" />
        </mxCell>
        <mxCell id="grrOnaRMzCS4ievq40nL-54" value="" style="edgeStyle=orthogonalEdgeStyle;rounded=0;orthogonalLoop=1;jettySize=auto;html=1;" edge="1" parent="1" source="grrOnaRMzCS4ievq40nL-49" target="grrOnaRMzCS4ievq40nL-52">
          <mxGeometry relative="1" as="geometry" />
        </mxCell>
        <mxCell id="grrOnaRMzCS4ievq40nL-49" value="disarm the avionics by writing the ARMING_PIN LOW" style="rounded=1;whiteSpace=wrap;html=1;" vertex="1" parent="1">
          <mxGeometry x="1180" y="420" width="120" height="60" as="geometry" />
        </mxCell>
        <mxCell id="grrOnaRMzCS4ievq40nL-51" value="N" style="text;html=1;align=center;verticalAlign=middle;whiteSpace=wrap;rounded=0;" vertex="1" parent="1">
          <mxGeometry x="1090" y="550" width="60" height="30" as="geometry" />
        </mxCell>
        <mxCell id="grrOnaRMzCS4ievq40nL-57" style="edgeStyle=orthogonalEdgeStyle;rounded=0;orthogonalLoop=1;jettySize=auto;html=1;" edge="1" parent="1" source="grrOnaRMzCS4ievq40nL-52" target="grrOnaRMzCS4ievq40nL-36">
          <mxGeometry relative="1" as="geometry">
            <Array as="points">
              <mxPoint x="1449" y="570" />
            </Array>
          </mxGeometry>
        </mxCell>
        <mxCell id="grrOnaRMzCS4ievq40nL-52" value="disarming successful. Publish DISARMING_SUCCESS&amp;nbsp; messageto the ground station" style="rounded=1;whiteSpace=wrap;html=1;" vertex="1" parent="1">
          <mxGeometry x="1380" y="405" width="137.5" height="90" as="geometry" />
        </mxCell>
      </root>
    </mxGraphModel>
  </diagram>
</mxfile>
